<svg width="120" height="42" viewBox="0 0 120 42" fill="none" xmlns="http://www.w3.org/2000/svg">
<path d="M57.3575 0L0 1.64663L1.64253 28H59L57.3575 0Z" fill="#0061A7"/>
<path d="M61.9453 21.1292V8.33008H64.1165V21.1292H61.9453Z" fill="#0061A7"/>
<path d="M69.762 21.2468C69.1401 21.2555 68.5234 21.133 67.9527 20.8875C67.4645 20.6788 67.0455 20.3376 66.744 19.9029C66.4579 19.478 66.309 18.9767 66.317 18.4656C66.3065 17.9756 66.4317 17.4921 66.6789 17.0679C66.9694 16.6184 67.3984 16.2743 67.902 16.0869C68.6235 15.8204 69.3909 15.6983 70.1601 15.7276H72.8524V17.1649H70.3193C69.5775 17.1649 69.0817 17.2834 68.8248 17.5242C68.7023 17.6335 68.605 17.7678 68.5394 17.9179C68.4738 18.0679 68.4416 18.2302 68.4448 18.3938C68.4393 18.5751 68.479 18.755 68.5605 18.9173C68.6419 19.0797 68.7626 19.2196 68.9116 19.3244C69.2963 19.5788 69.7527 19.7047 70.2144 19.6837C70.7207 19.6956 71.2208 19.5714 71.6619 19.3244C72.0838 19.0824 72.4066 18.7008 72.5738 18.2464L72.9357 19.54C72.728 20.0795 72.3308 20.5261 71.8175 20.7976C71.1831 21.1218 70.4748 21.2766 69.762 21.2468ZM72.6787 21.1282V19.2633L72.5557 18.8681V15.609C72.5723 15.3365 72.5299 15.0637 72.4313 14.809C72.3326 14.5542 72.1801 14.3234 71.9839 14.1322C71.4916 13.7474 70.8717 13.5602 70.247 13.6075C69.7247 13.607 69.2057 13.6883 68.709 13.8483C68.2438 13.989 67.8102 14.2171 67.4316 14.5202L66.5848 12.95C67.1183 12.5563 67.7226 12.2672 68.3652 12.0984C69.0642 11.9072 69.7861 11.8117 70.5111 11.8145C71.8537 11.8145 72.8922 12.1307 73.6305 12.7703C74.3687 13.4099 74.7161 14.3945 74.7161 15.7276V21.1174L72.6787 21.1282Z" fill="#0061A7"/>
<path d="M77.5039 21.1292V8.33008H79.6751V14.0577L79.5014 16.5047L79.5738 18.9553V21.1292H77.5039ZM82.6461 21.2478C81.9118 21.2606 81.1869 21.0822 80.5436 20.7304C79.9141 20.367 79.4096 19.8235 79.0961 19.1709C78.7133 18.3415 78.5311 17.4345 78.5642 16.5227C78.5298 15.6069 78.7172 14.6963 79.1106 13.8673C79.4369 13.2169 79.9509 12.6777 80.5871 12.3186C81.2187 11.9782 81.9275 11.8038 82.6461 11.8119C83.4919 11.7943 84.3276 11.9962 85.0707 12.3976C85.7651 12.7848 86.3414 13.3509 86.7389 14.0362C87.1632 14.7945 87.3756 15.6518 87.3541 16.5191C87.3756 17.3864 87.1632 18.2437 86.7389 19.002C86.3399 19.6889 85.7641 20.2581 85.0707 20.6513C84.3292 21.0579 83.493 21.2636 82.6461 21.2478ZM82.4037 19.4045C82.893 19.4086 83.3747 19.2846 83.8005 19.0452C84.2141 18.817 84.555 18.4785 84.7848 18.0678C85.0355 17.5955 85.1601 17.0672 85.1467 16.5335C85.1617 15.9961 85.037 15.464 84.7848 14.9884C84.556 14.5733 84.2151 14.2299 83.8005 13.9966C83.3747 13.7572 82.893 13.6332 82.4037 13.6373C81.911 13.6342 81.426 13.758 80.996 13.9966C80.5791 14.2281 80.2366 14.5719 80.0081 14.9884C79.7541 15.4634 79.6294 15.9959 79.6462 16.5335C79.6311 17.0674 79.7558 17.5961 80.0081 18.0678C80.2337 18.4892 80.5766 18.8372 80.996 19.0703C81.4284 19.3002 81.9133 19.4153 82.4037 19.4045Z" fill="#0061A7"/>
<path d="M8.75391 21.1255V8.1898H14.714C15.7694 8.16378 16.8187 8.35843 17.7935 8.76113C18.6099 9.10611 19.306 9.68225 19.7946 10.4176C20.2844 11.181 20.5361 12.0711 20.5184 12.976C20.5493 13.8648 20.3063 14.7417 19.822 15.4897C19.3377 16.2377 18.6351 16.8212 17.808 17.1622C16.8358 17.575 15.7854 17.7747 14.7284 17.7479H10.8021L12.4414 16.156V21.1255H8.75391ZM12.4414 16.5405L10.8021 14.8589H14.4787C15.095 14.9067 15.7077 14.729 16.2012 14.3594C16.3928 14.1839 16.543 13.9686 16.6412 13.7289C16.7394 13.4891 16.7832 13.2309 16.7694 12.9724C16.7834 12.7113 16.7398 12.4503 16.6416 12.2076C16.5435 11.965 16.3932 11.7465 16.2012 11.5675C15.7077 11.1978 15.095 11.0202 14.4787 11.068H10.8021L12.4414 9.38636V16.5405Z" fill="#F2F2F2"/>
<path d="M22.2852 21.1255V8.1898H28.2452C29.3007 8.16378 30.3499 8.35843 31.3247 8.76113C32.1412 9.10611 32.8372 9.68225 33.3259 10.4176C33.8156 11.181 34.0674 12.0711 34.0496 12.976C34.0648 13.8671 33.8129 14.7427 33.3259 15.4913C32.8342 16.2163 32.1381 16.7812 31.3247 17.1154C30.3488 17.5137 29.3 17.7059 28.2452 17.6796H24.3334L25.9726 16.1453V21.1255H22.2852ZM25.9726 16.5405L24.3334 14.8589H28.0208C28.6372 14.9067 29.2498 14.729 29.7434 14.3594C29.9349 14.1839 30.0851 13.9686 30.1833 13.7289C30.2815 13.4891 30.3253 13.2309 30.3115 12.9724C30.3255 12.7113 30.2819 12.4503 30.1837 12.2076C30.0856 11.965 29.9353 11.7465 29.7434 11.5675C29.2489 11.1996 28.6369 11.0222 28.0208 11.068H24.3334L25.9726 9.38636V16.5405ZM30.3477 21.1255L27.0908 16.4112H31.0352L34.2921 21.1255H30.3477Z" fill="#F2F2F2"/>
<path d="M42.6355 21.3838C41.6477 21.396 40.6662 21.2266 39.7405 20.8843C38.8873 20.5684 38.1052 20.0885 37.439 19.4721C36.7989 18.8716 36.287 18.1494 35.9336 17.3485C35.5777 16.4996 35.3945 15.5892 35.3945 14.6698C35.3945 13.7503 35.5777 12.8399 35.9336 11.991C36.2885 11.184 36.8043 10.4568 37.4498 9.85301C38.1152 9.23558 38.8975 8.75558 39.7513 8.44086C41.6226 7.77232 43.67 7.77232 45.5413 8.44086C46.3808 8.75071 47.1493 9.22452 47.8013 9.83428C48.4533 10.444 48.9756 11.1774 49.3373 11.991C49.7114 12.834 49.899 13.7468 49.8874 14.668C49.8985 15.5706 49.7205 16.4657 49.3648 17.2964C49.0091 18.1271 48.4834 18.8754 47.8211 19.4937C47.1615 20.1061 46.3868 20.5836 45.5413 20.8987C44.6112 21.2374 43.6259 21.4018 42.6355 21.3838ZM42.6355 18.351C43.11 18.3552 43.5808 18.2673 44.0214 18.0923C44.4436 17.9269 44.8249 17.6733 45.1396 17.3485C45.4627 17.0087 45.7159 16.6096 45.8851 16.1735C46.2421 15.1913 46.2421 14.1159 45.8851 13.1336C45.7159 12.6976 45.4627 12.2985 45.1396 11.9587C44.8253 11.6326 44.4439 11.3777 44.0214 11.2113C43.1301 10.8664 42.1408 10.8664 41.2495 11.2113C40.8275 11.3786 40.4463 11.6334 40.1313 11.9587C39.8094 12.2953 39.5563 12.6906 39.3858 13.1229C39.0288 14.1052 39.0288 15.1805 39.3858 16.1628C39.5538 16.6027 39.807 17.0055 40.1313 17.3485C40.4487 17.6733 40.8324 17.9269 41.2567 18.0923C41.6951 18.2664 42.1633 18.3542 42.6355 18.351Z" fill="#F2F2F2"/>
<path d="M56.624 42L120 40.4007L118.372 26H55L56.624 42Z" fill="#FF9149"/>
<path d="M63.2297 36.4247C62.8173 36.4339 62.4077 36.3555 62.0283 36.1947C61.7101 36.0594 61.4358 35.8393 61.2358 35.5587C61.0504 35.2849 60.9533 34.9616 60.9572 34.6317C60.9533 34.3162 61.0358 34.0057 61.196 33.7333C61.3809 33.4445 61.6514 33.2198 61.9704 33.0901C62.4313 32.9126 62.9239 32.8306 63.4179 32.8494H65.3648V33.6435H63.4722C63.0757 33.5975 62.6758 33.6958 62.3468 33.9202C62.2543 34.0047 62.1808 34.1075 62.1309 34.222C62.0811 34.3366 62.056 34.4602 62.0573 34.5849C62.0543 34.7249 62.0857 34.8635 62.1488 34.9887C62.2118 35.1139 62.3046 35.222 62.4191 35.3036C62.7123 35.4988 63.0618 35.5935 63.4143 35.5731C63.7943 35.581 64.1695 35.4866 64.4999 35.3C64.8119 35.1168 65.0508 34.8326 65.1766 34.4951L65.3973 35.2533C65.2458 35.6182 64.9724 35.9202 64.6229 36.1085C64.1943 36.3328 63.714 36.4418 63.2297 36.4247ZM65.2417 36.3564V35.07L65.1838 34.8257V32.6302C65.1958 32.4321 65.1656 32.2337 65.0951 32.0479C65.0246 31.8622 64.9155 31.6933 64.7749 31.5522C64.4291 31.2705 63.9869 31.1327 63.5409 31.1678C63.1789 31.1673 62.8193 31.2268 62.477 31.3438C62.1557 31.448 61.8564 31.61 61.5941 31.8217L61.1309 31.0025C61.4702 30.7363 61.8587 30.5386 62.2744 30.4204C62.7263 30.2855 63.1957 30.2177 63.6676 30.2191C64.3708 30.1723 65.066 30.3904 65.6145 30.83C65.8569 31.0729 66.0435 31.365 66.1616 31.6863C66.2796 32.0076 66.3263 32.3504 66.2984 32.6913V36.3564H65.2417Z" fill="#F2F2F2"/>
<path d="M71.0319 36.4243C70.449 36.435 69.8732 36.2964 69.36 36.0219C68.8831 35.7642 68.4854 35.383 68.2093 34.9188C67.9313 34.4245 67.7854 33.8679 67.7854 33.3018C67.7854 32.7357 67.9313 32.1791 68.2093 31.6848C68.4846 31.2209 68.8826 30.8407 69.36 30.5853C69.8751 30.3165 70.45 30.1805 71.0319 30.1901C71.5479 30.1802 72.0589 30.2923 72.5228 30.517C72.9531 30.7307 73.3069 31.0707 73.536 31.4908L72.6892 32.0298C72.512 31.749 72.262 31.5207 71.9655 31.3686C71.6754 31.226 71.3555 31.1533 71.0319 31.1566C70.653 31.1475 70.2785 31.238 69.9462 31.4189C69.6307 31.5927 69.37 31.8502 69.1936 32.1627C68.9992 32.508 68.9029 32.8992 68.9149 33.2946C68.9039 33.6922 69.0001 34.0854 69.1936 34.4337C69.37 34.7472 69.6305 35.0059 69.9462 35.1811C70.2785 35.362 70.653 35.4525 71.0319 35.4434C71.3555 35.4467 71.6754 35.3741 71.9655 35.2314C72.262 35.0793 72.512 34.851 72.6892 34.5702L73.536 35.0984C73.3027 35.5154 72.9501 35.8543 72.5228 36.0722C72.0622 36.3086 71.5503 36.4295 71.0319 36.4243Z" fill="#F2F2F2"/>
<path d="M76.7688 36.4247C76.3564 36.4339 75.9468 36.3555 75.5674 36.1947C75.2485 36.0604 74.974 35.8401 74.7749 35.5587C74.5895 35.2849 74.4923 34.9616 74.4962 34.6317C74.4923 34.3162 74.5749 34.0057 74.7351 33.7333C74.9199 33.4445 75.1905 33.2198 75.5095 33.0901C75.97 32.9114 76.4629 32.8294 76.957 32.8494H78.9038V33.6435H77.004C76.6075 33.5975 76.2077 33.6958 75.8786 33.9202C75.7861 34.0047 75.7126 34.1075 75.6628 34.222C75.6129 34.3366 75.5878 34.4602 75.5891 34.5849C75.5858 34.7249 75.6171 34.8636 75.6802 34.9889C75.7432 35.1141 75.8362 35.2222 75.951 35.3036C76.2455 35.4989 76.5961 35.5935 76.9497 35.5731C77.3298 35.581 77.7049 35.4866 78.0353 35.3C78.3473 35.1168 78.5863 34.8326 78.712 34.4951L78.9328 35.2533C78.7813 35.6182 78.5078 35.9202 78.1584 36.1085C77.7307 36.3319 77.2518 36.4409 76.7688 36.4247ZM78.7808 36.3564V35.07L78.7229 34.8257V32.6302C78.7333 32.4322 78.7023 32.2343 78.632 32.0488C78.5616 31.8633 78.4533 31.6942 78.314 31.5522C77.9691 31.2682 77.5268 31.1279 77.08 31.1606C76.7179 31.1597 76.3583 31.2192 76.0161 31.3366C75.6944 31.4399 75.3949 31.602 75.1331 31.8145L74.6699 31.0025C75.0093 30.7363 75.3977 30.5386 75.8134 30.4204C76.2653 30.2855 76.7348 30.2177 77.2067 30.2191C77.9099 30.1723 78.6051 30.3904 79.1535 30.83C79.6095 31.236 79.8338 31.8541 79.8338 32.6913V36.3564H78.7808Z" fill="#F2F2F2"/>
<path d="M84.4292 36.4248C83.873 36.4349 83.324 36.2999 82.8369 36.0332C82.3759 35.7805 81.9931 35.4078 81.7296 34.9552C81.4633 34.4527 81.3242 33.8934 81.3242 33.3256C81.3242 32.7579 81.4633 32.1986 81.7296 31.6961C81.9931 31.2435 82.3759 30.8708 82.8369 30.6181C83.324 30.3514 83.873 30.2164 84.4292 30.2265C84.9194 30.2237 85.402 30.3476 85.8296 30.5858C86.2573 30.816 86.61 31.1625 86.8465 31.5847C87.1094 32.1209 87.2337 32.7136 87.2083 33.3095C87.2296 33.905 87.1054 34.4967 86.8465 35.0342C86.6257 35.4692 86.2825 35.8312 85.8586 36.0763C85.4208 36.3142 84.9281 36.4343 84.4292 36.4248ZM84.5196 35.4582C84.8866 35.4641 85.2486 35.3736 85.5691 35.1959C85.8828 35.0186 86.1399 34.7571 86.3109 34.4413C86.497 34.0932 86.5904 33.7036 86.5823 33.3095C86.593 32.9151 86.4994 32.5248 86.3109 32.1776C86.1374 31.8665 85.8806 31.6091 85.5691 31.4338C85.2457 31.2617 84.8846 31.1717 84.5178 31.1717C84.151 31.1717 83.7899 31.2617 83.4666 31.4338C83.164 31.6146 82.9144 31.8711 82.7428 32.1776C82.5514 32.5239 82.4565 32.9146 82.4678 33.3095C82.459 33.7041 82.5538 34.0941 82.7428 34.4413C82.912 34.7524 83.1619 35.0129 83.4666 35.1959C83.7882 35.374 84.1515 35.4645 84.5196 35.4582ZM86.6185 36.3566V34.7108L86.6872 33.2987L86.5714 31.883V27.8262H87.6824V36.3566H86.6185Z" fill="#F2F2F2"/>
<path d="M92.5276 36.4246C91.9258 36.4415 91.3294 36.3068 90.7942 36.033C90.313 35.7786 89.9121 35.3968 89.6363 34.9299C89.3567 34.4395 89.2154 33.8834 89.2273 33.3201C89.2149 32.758 89.3522 32.2027 89.6254 31.7103C89.8798 31.2526 90.2552 30.8724 90.711 30.6108C91.1942 30.3439 91.7395 30.2076 92.2924 30.2155C92.8429 30.2041 93.3865 30.3394 93.8666 30.6072C94.3238 30.8574 94.7002 31.2311 94.9522 31.6851C95.2184 32.1953 95.3515 32.7636 95.3394 33.338C95.3394 33.3812 95.3394 33.4351 95.3394 33.4961C95.3394 33.5572 95.3394 33.6147 95.3213 33.6686H90.1067V32.8781H94.7387L94.2863 33.1512C94.3003 32.7875 94.2167 32.4266 94.0439 32.1056C93.8803 31.8068 93.6376 31.5583 93.3418 31.3869C93.0245 31.2165 92.6694 31.1272 92.3087 31.1272C91.9479 31.1272 91.5928 31.2165 91.2755 31.3869C90.9771 31.556 90.7325 31.805 90.5699 32.1056C90.3924 32.437 90.3039 32.8083 90.313 33.1835V33.3668C90.3086 33.7451 90.4074 34.1176 90.5988 34.4448C90.7854 34.7632 91.0606 35.0215 91.3913 35.1886C91.7537 35.3691 92.1549 35.4591 92.5602 35.4509C92.8996 35.4553 93.2366 35.3931 93.5517 35.2676C93.8502 35.1444 94.1173 34.9566 94.3334 34.7178L94.9449 35.4365C94.6631 35.7552 94.3081 36.0017 93.91 36.1552C93.4714 36.334 93.0017 36.4256 92.5276 36.4246Z" fill="#F2F2F2"/>
<path d="M104.555 30.2047C105.009 30.1962 105.458 30.2947 105.865 30.4922C106.245 30.6832 106.555 30.9872 106.752 31.3618C106.979 31.8232 107.088 32.3327 107.07 32.8458V36.3528H105.959V32.9751C105.995 32.494 105.845 32.0174 105.54 31.642C105.389 31.4884 105.206 31.3688 105.004 31.2913C104.803 31.2138 104.587 31.1802 104.371 31.1929C104.032 31.1848 103.696 31.2641 103.397 31.4228C103.124 31.5811 102.906 31.8179 102.771 32.102C102.609 32.4505 102.531 32.832 102.543 33.2159V36.3564H101.432V32.9751C101.468 32.4957 101.322 32.0205 101.024 31.642C100.872 31.4876 100.688 31.3676 100.485 31.2901C100.282 31.2126 100.064 31.1794 99.8474 31.1929C99.5119 31.1857 99.1803 31.265 98.8848 31.4228C98.6052 31.5795 98.3794 31.8162 98.2371 32.102C98.0715 32.4496 97.9921 32.8316 98.0055 33.2159V36.3564H96.8945V30.2479H97.9584V31.8684L97.7847 31.4552C97.977 31.0596 98.2897 30.734 98.6786 30.5245C99.1084 30.2948 99.5909 30.1796 100.079 30.1904C100.617 30.1763 101.146 30.3268 101.595 30.6216C102.034 30.9313 102.333 31.3997 102.428 31.9259L101.979 31.7426C102.169 31.2829 102.504 30.8969 102.934 30.6431C103.422 30.3481 103.984 30.1961 104.555 30.2047Z" fill="#F2F2F2"/>
<path d="M109.285 38.6575C108.992 38.6583 108.702 38.6097 108.427 38.5138C108.159 38.4254 107.912 38.2822 107.703 38.0934L108.177 37.2669C108.325 37.4082 108.498 37.5214 108.687 37.6011C108.874 37.6778 109.075 37.7168 109.277 37.7161C109.518 37.7238 109.754 37.6503 109.947 37.5077C110.167 37.3101 110.338 37.064 110.446 36.789L110.83 35.9518L110.946 35.8117L113.352 30.2816H114.438L111.456 36.9687C111.314 37.3354 111.112 37.6765 110.859 37.9784C110.661 38.2062 110.414 38.3857 110.135 38.503C109.864 38.6067 109.575 38.6591 109.285 38.6575ZM110.732 36.5519L107.931 30.2637H109.089L111.456 35.6751L110.732 36.5519Z" fill="#F2F2F2"/>
</svg>
